# xmcd
#
# Track frame offsets:
#	150
#	20129
#	37957
#	57629
#	74814
#	90875
#	104961
#	121239
#	135892
#	152990
#	168022
#	184922
#
# Disc length: 2672 seconds
#
# Revision: 2
# Processed by: cddbd v1.5.2PL0 Copyright (c) Steve Scherf et al.
# Submitted via: audiograbber 1.83.01
#
DISCID=a60a6e0c
DTITLE=Wynonna - Love Heals
DYEAR=2010
DGENRE=Country
TTITLE0=She Is His Only Need
TTITLE1=No One Else On Earth
TTITLE2=My Strongest Weakness
TTITLE3=Tell Me Why
TTITLE4=Only Love
TTITLE5=Rock Bottom
TTITLE6=What The World Needs
TTITLE7=Come Some Rainy Day
TTITLE8=Is It Over Yet
TTITLE9=Let Your Light Shine
TTITLE10=Sing [Radio Mix]
TTITLE11=When I Fall In Love
EXTD=
EXTT0=
EXTT1=
EXTT2=
EXTT3=
EXTT4=
EXTT5=
EXTT6=
EXTT7=
EXTT8=
EXTT9=
EXTT10=
EXTT11=
PLAYORDER=
